<svg height="256" viewBox="0 0 256 256" width="256" xmlns="http://www.w3.org/2000/svg"><path d="m86.140005 216.52666c-30.473333-14.46666-52.36-44.1-55.673333-79.19332h-14c4.76 57.49332 52.826666 102.66666 111.533338 102.66666 2.1 0 4.10666-.18663 6.16-.32663l-35.560005-35.60668-12.46 12.46zm8.306667-60.9c-1.773334 0-3.406667-.23336-4.9-.79336-1.446667-.5133-2.706667-1.25996-3.733334-2.1933-1.026666-.93337-1.82-2.1-2.38-3.40666-.56-1.35334-.84-2.8-.84-4.38668h-12.133333c0 3.36.653337 6.3 1.96 8.86668 1.306667 2.56666 3.033333 4.71332 5.226667 6.39332 2.193333 1.72668 4.713333 2.98668 7.606666 3.87334 2.893334.93337 5.88 1.35334 9.053334 1.35334 3.453333 0 6.673338-.46664 9.659998-1.4 2.98667-.93334 5.55333-2.33334 7.74667-4.15334 2.19333-1.82 3.87334-4.06 5.13333-6.72 1.21334-2.66 1.86666-5.69334 1.86666-9.1 0-1.82-.23337-3.54666-.65337-5.22666-.46663-1.68-1.16666-3.26668-2.1-4.76-.98-1.49334-2.24-2.8-3.78-4.01334-1.54-1.16666-3.45333-2.14666-5.64666-2.94 1.86666-.84 3.5-1.86666 4.9-3.08s2.56666-2.52 3.5-3.87334c.93337-1.4 1.63333-2.8 2.1-4.29332.46663-1.49334.7-2.98668.7-4.43334 0-3.40666-.56-6.39334-1.68-8.96s-2.70666-4.71334-4.76-6.44c-2.05334-1.72667-4.48-3.03333-7.37333-3.92-2.98663-.93333-6.159965-1.35333-9.613298-1.35333-3.36 0-6.486667.51333-9.333334 1.49333s-5.273333 2.38-7.326667 4.15333c-2.053333 1.77333-3.64 3.87333-4.806666 6.30001-1.166667 2.42666-1.726667 5.08666-1.726667 7.93332h12.133333c0-1.58666.28-2.98666.84-4.2.56-1.26 1.353334-2.33332 2.333334-3.17332.98-.88664 2.193333-1.58668 3.546666-2.05334 1.353334-.46663 2.846667-.74663 4.433334-.74663 3.733333 0 6.486665.98 8.306665 2.89332 1.82 1.91334 2.70667 4.62 2.70667 8.07334 0 1.68-.23334 3.17334-.74666 4.52666-.51334 1.35334-1.26 2.52-2.28667 3.5s-2.33333 1.72668-3.826669 2.28668c-1.54.56-3.36.84-5.413333.84h-7.186667v9.56666h7.186667c2.053333 0 3.92.23337 5.553333.7 1.633339.46663 3.033339 1.16666 4.199999 2.19334 1.16667.98 2.05334 2.24 2.70667 3.73332.60666 1.49334.93334 3.26668.93334 5.32 0 3.78-1.07334 6.67334-3.26667 8.68-2.1 1.96-5.040001 2.94-8.820001 2.94zm79.893338-55.3c-2.93999-3.07999-6.48668-5.45999-10.59334-7.13999-4.15334-1.68-8.68-2.52-13.67334-2.52h-22.07332v74.66667h21.42c5.18 0 9.84666-.84 14.09332-2.52 4.24669-1.68 7.84-4.06 10.82668-7.14 2.98666-3.08 5.32-6.81334 6.90666-11.15334 1.63334-4.34 2.42666-9.24 2.42666-14.65334v-3.68666c0-5.41334-.84-10.26666-2.47332-14.65334-1.63334-4.38666-3.92-8.12-6.86-11.2zm-3.68668 29.58668c0 3.87332-.42 7.42-1.35332 10.5-.88664 3.12666-2.19334 5.74-3.96667 7.88666-1.77332 2.14666-3.96666 3.78-6.62667 4.94666-2.66 1.12-5.74 1.72668-9.28665 1.72668h-8.44668v-53.85334h9.1c6.72 0 11.80668 2.14666 15.35334 6.39334 3.49999 4.29332 5.27333 10.45332 5.27333 18.57332v3.82668zm-42.65332-113.91334c-2.1 0-4.10667.18666-6.16.32666l35.56 35.60667 12.41332-12.41333c30.52 14.42 52.40668 44.05333 55.72 79.14666h14c-4.76-57.49333-52.82666-102.66666-111.53332-102.66666z" fill="#ffffff"/></svg>