<svg height="256" viewBox="0 0 256 256" width="256" xmlns="http://www.w3.org/2000/svg"><path d="m193.88748 123.33334c3.17334 0 6.25334.28 9.33334.65336l.09367-107.9867-186.666656 186.66666h107.893326c-.37336-3.08-.65336-6.16-.65336-9.33332 0-38.64 31.36-70 70-70zm34.62666 74.57332c.18664-1.49332.37337-2.98666.37337-4.57332 0-1.58668-.0937-3.08-.37337-4.57334l9.89334-7.74666c.84-.74664 1.12-1.96.56-2.98668l-9.33334-16.14666c-.56-1.02666-1.77332-1.4-2.89332-1.02666l-11.57334 4.66666c-2.42666-1.86666-5.04-3.45334-7.93334-4.57334l-1.77332-12.32c-.0937-1.12-1.12-1.96-2.24-1.96h-18.66668c-1.12 0-2.14666.84-2.33332 1.96l-1.77334 12.32c-2.8 1.21334-5.50666 2.70668-7.93334 4.57334l-11.57332-4.66666c-1.02668-.37337-2.24 0-2.89334 1.02666l-9.33334 16.14666c-.56 1.02668-.37336 2.24.56 2.98668l9.89334 7.74666c-.18663 1.49334-.28 2.98666-.28 4.57334 0 1.58666.0937 3.08.28 4.57332l-9.89334 7.74668c-.84.74663-1.12 1.96-.56 2.98666l9.33334 16.14666c.56 1.02668 1.77334 1.4 2.89334 1.02668l11.57332-4.66668c2.42668 1.86668 5.04 3.45334 7.93334 4.57334l1.77334 12.32c.18663 1.12 1.12 1.96 2.33332 1.96h18.66668c1.12 0 2.14666-.84 2.33332-1.96l1.77334-12.32c2.8-1.21334 5.50666-2.70666 7.84-4.57334l11.66666 4.66668c1.02668.37336 2.24 0 2.89334-1.02668l9.33334-16.14666c.56-1.02666.28-2.24-.56-2.98666zm-34.62666 9.42668c-7.74666 0-14-6.25334-14-14 0-7.74668 6.25334-14 14-14s14 6.25332 14 14c0 7.74666-6.25334 14-14 14z" fill="#ffffff"/></svg>