<svg height="256" viewBox="0 0 256 256" width="256" xmlns="http://www.w3.org/2000/svg"><path d="m127.98872 16a111.99883 111.99883 0 0 0 -111.98872 112.01129 111.99883 111.99883 0 0 0  111.98872 111.98871 111.99883 111.99883 0 0 0  112.01128-111.98871 111.99883 111.99883 0 0 0 -112.01128-112.01129zm0 7.01904a104.98673 104.98673 0 0 1 104.99224 104.99225 104.98673 104.98673 0 0 1 -104.99224 104.96967 104.98673 104.98673 0 0 1 -104.992244-104.96967 104.98673 104.98673 0 0 1  104.992244-104.99225zm.0112 11.09281a93.884246 93.884246 0 0 0 -93.888166 93.88815 93.884246 93.884246 0 0 0  93.888166 93.88816 93.884246 93.884246 0 0 0  93.88815-93.88816 93.884246 93.884246 0 0 0 -93.88815-93.88815zm0 14.42176a79.470484 79.470484 0 0 1 79.46639 79.46639 79.470484 79.470484 0 0 1 -79.46639 79.46639 79.470484 79.470484 0 0 1 -79.466402-79.46639 79.470484 79.470484 0 0 1  79.466402-79.46639zm25.71103 79.46639a25.711038 25.711038 0 0 1 -25.71103 25.71104 25.711038 25.711038 0 0 1 -25.71104-25.71104 25.711038 25.711038 0 0 1  25.71104-25.71104 25.711038 25.711038 0 0 1  25.71103 25.71104z" fill="#ffffff"/></svg>