<svg height="256" viewBox="0 0 256 256" width="256" xmlns="http://www.w3.org/2000/svg"><g fill="#ffffff" transform="matrix(6.5123338 0 0 6.5123338 6.72158 49.851994)"><path d="m4.2161017 8.3559322h1.4576272l-.2878814 2.8824578 2.3504237-1.6908468.7288136 1.2608468-2.6383051 1.19161 2.6383051 1.19161-.7288136 1.260848-2.3504237-1.690848.2878814 2.882458h-1.4576272l.2878814-2.882458-2.3504237 1.690848-.7288136-1.260848 2.6383051-1.19161-2.6383051-1.19161.7288136-1.2608469 2.3504237 1.6908469z"/><path d="m13.334745 8.3559322h1.457627l-.287881 2.8824578 2.350423-1.6908468.728814 1.2608468-2.638305 1.19161 2.638305 1.19161-.728814 1.260848-2.350423-1.690848.287881 2.882458h-1.457627l.287881-2.882458-2.350423 1.690848-.728813-1.260848 2.638304-1.19161-2.638304-1.19161.728813-1.2608468 2.350423 1.6908468z"/><path d="m22.453389 8.3559323h1.457627l-.287881 2.8824577 2.350423-1.6908467.728814 1.2608467-2.638305 1.19161 2.638305 1.19161-.728814 1.260848-2.350423-1.690848.287881 2.882458h-1.457627l.287881-2.882458-2.350423 1.690848-.728814-1.260848 2.638305-1.19161-2.638305-1.19161.728814-1.2608467 2.350423 1.6908467z"/><path d="m31.572034 8.3559322h1.457627l-.287881 2.8824578 2.350423-1.6908468.728814 1.2608468-2.638305 1.19161 2.638305 1.19161-.728814 1.260848-2.350423-1.690848.287881 2.882458h-1.457627l.287881-2.882458-2.350423 1.690848-.728814-1.260848 2.638305-1.19161-2.638305-1.19161.728814-1.2608468 2.350423 1.6908468z"/></g></svg>