<svg height="256" viewBox="0 0 256 256" width="256" xmlns="http://www.w3.org/2000/svg"><path d="m56.727273 26.18182c0-5.6-4.581818-10.18182-10.181818-10.18182s-10.181819 4.58182-10.181819 10.18182v40.72727h-20.363636v61.09091h61.090909v-61.09091h-20.363636zm40.727272 142.54545c0 13.23637 8.552725 24.43637 20.363635 28.71273v42.56h20.36364v-42.56c11.81091-4.17455 20.36363-15.37455 20.36363-28.71273v-20.36363h-61.090905zm-81.454545 0c0 13.23637 8.552727 24.43637 20.363636 28.71273v42.56h20.363637v-42.56c11.810909-4.27636 20.363636-15.47636 20.363636-28.71273v-20.36363h-61.090909zm203.63636-101.81818v-40.72727c0-5.6-4.58181-10.18182-10.18181-10.18182s-10.18182 4.58182-10.18182 10.18182v40.72727h-20.36364v61.09091h61.09091v-61.09091zm-81.45454-40.72727c0-5.6-4.58182-10.18182-10.18182-10.18182s-10.18182 4.58182-10.18182 10.18182v40.72727h-20.363635v61.09091h61.090905v-61.09091h-20.36363zm40.72727 142.54545c0 13.23637 8.55273 24.43637 20.36364 28.71273v42.56h20.36363v-42.56c11.81091-4.17455 20.36364-15.37455 20.36364-28.71273v-20.36363h-61.09091z" fill="#ffffff"/></svg>