<svg height="256" width="256" xmlns="http://www.w3.org/2000/svg"><g stroke="#ffffff" transform="matrix(3.7333332 0 0 3.7333332 15.999955 -3688.8187)"><g fill="none" stroke="#ffffff"><circle cx="30.000001367537" cy="1022.362185774125" r="10.137046993974" stroke-width="1.489165919401"/><circle cx="30.000013323809" cy="1022.36218442179" r="28.315889068746" stroke-width="3.368223592647"/><circle cx="30.000004429437" cy="1022.36218073847" r="5.835278443831" stroke-width="3.333333236929"/></g><path d="m24.776049 1045.5503s19.405824.7879 19.820747-5.9941c.33481-5.5002-13.446864-4.9776-13.459334-4.9776-.0136 0-.108456.01-.108456.088 0 .067.04988.088.09863.088 3.823123 0 10.040557 1.5176 9.837633 4.8057-.16363 2.6796-5.014233 5.8149-16.183553 5.8149-.06575 0-.11072.045-.11072.086 0 .042.02683.08.105053.089m-1.43145-5.8577c0-.243 1.46357-.5831 3.847683-.5831 2.384867 0 3.84693.3401 3.84693.5831 0 .2434-1.462063.5812-3.84693.5812-2.384113 0-3.847683-.3378-3.847683-.5812zm-1.52101-4.1984c-.01623 0-.031.01-.04044.022-1.12649 1.586-1.80783 2.6615-2.512593 3.9652l-.07029.144-.0206.046c-.05978.1263-.0458.2668.03987.3999.41719.6522 2.755576 1.414 7.97349 1.414 3.891143 0 8.026403-.628 8.026403-1.7927 0-1.125-4.081223-1.7957-8.026403-1.7957-1.30939 0-2.605934.1848-2.980424.2433.357484-.5502 1.83806-2.5439 1.853554-2.5651.0064-.01.01097-.019.01097-.03 0-.01-.0038-.015-.0068-.023-.0087-.017-.02647-.028-.04421-.028h-4.20252" fill="#ffffff" stroke="none"/></g></svg>