<svg height="256" width="256" xmlns="http://www.w3.org/2000/svg"><path d="m182.34704 110.11073c8.57601.001 10.87662.19272 12.31952.6671 2.87777.97845 5.34097 2.77373 6.50137 4.78248l.90364 1.57143-.81536 1.5729c-.44352.85982-2.04707 4.13313-3.57026 7.28338-4.13398 8.55092-5.88107 10.61452-10.86498 12.77148-1.88219.81537-4.41094.90433-30.36913 1.05255-15.5709.14837-28.29749 0-28.29749-.19263 0-.59302 4.63252-9.70877 8.44075-16.62153 3.57383-6.48583 3.7904-6.81197 6.50139-8.79256 5.47743-3.99824 4.82244-3.90929 28.38565-4.07532h10.86501zm-35.06333-59.331594c-59.466146 0-65.97039.163073-72.572991 1.765635-7.993232 1.940561-18.048486 8.903745-23.779524 16.492531-1.106763 1.467651-29.733848 58.943178-33.851271 67.962488-1.657396 3.63069-1.378313 9.36194.639418 12.70783 1.475446 2.44609 3.202587 3.9612 6.258964 5.45404 5.745699 2.80921 6.267415 2.82552 39.757538 3.04945l30.85395.22234-5.333336 10.78198c-6.617262 13.38533-16.198247 33.33649-16.198247 33.7248 0 .16307 5.434238.20764 12.055064.14837l12.033071-.14837 4.187274-8.43971c2.30109-4.64596 4.31658-9.05488 4.47389-9.78725.1568-.7264 3.49746-7.7088 7.44902-15.53044l7.18449-14.21539 39.86776-.19278c39.32895-.19262 39.88613-.20748 42.82087-1.24517 3.26701-1.17121 6.49862-3.30004 8.5069-5.61566.85761-.99328 3.5327-6.55405 7.86776-16.33243l6.56749-14.79212-.15425-3.81886c-.36064-9.26251-4.26046-14.468945-12.16528-16.236056-3.25361-.726416-9.75382-.845018-58.77681-.99326l-55.096356-.163067-3.944944 7.348623-3.944842 7.37976 13.179032.25202 13.15705.22238-2.02761 3.7551c-1.12071 2.05471-4.32869 8.10171-7.11841 13.44456-2.78971 5.34283-5.52099 10.42915-6.08262 11.29503-1.36121 2.10058-4.307314 3.94476-7.449014 4.65339-3.754544.84507-51.971439.44481-53.884296-.44465-1.795156-.84508-2.368799-1.66641-2.115679-3.11324.112-.63743 7.89396-16.29241 17.278232-34.78331 19.158711-37.749722 17.636836-35.349604 23.99996-38.505795l3.261744-1.604033 38.170703-.163073 38.19282-.148251 2.79891-4.460753 2.8209-4.459282h6.65566c3.65576 0 6.63924.14825 6.63361.355788-.005.207553-3.78056 8.012773-8.3967 17.327154l-8.39668 16.91059 4.01102.163077c2.2119.148251 4.20791 0 4.42974-.14825.22186-.14825 4.29439-7.98165 9.05785-17.45613l8.66114-17.199667h7.7355 7.73554l1.27824-2.502416c.69877-1.363881 1.25618-2.583967 1.25618-2.727762 0-.14825-26.79506-.25202-59.54811-.25202zm44.84842 19.029045-1.91735 3.753632-6.0165 12.193345-1.89532 3.882598h2.6226 1.80713.24243l2.13772-4.23543 2.1157-4.235418h5.57575c2.92225 0 5.30606.148238 5.53168.252018l-2.15977 4.460759-.0886.163066-1.76309 3.595005h4.58401l1.80716-3.595005.66121-1.319402 3.48208-7.444973c.1904-.385447.19213-.40027.37469-.770895 1.19849-2.463876 2.26641-4.672763 2.44627-5.070062.009 0 .12728-.237196.13216-.25202l.61702-1.215629h-4.53992l-1.76309 3.81886-2.04959 4.235423h-11.30577l.63911-1.215631c.54839-1.0229 1.48821-2.9353 2.09367-4.235422l1.10193-2.37493h-.22043l.17624-.385448h-4.42976zm33.91733-.385446h-1.71902c-.5544 0-1.12048.14825-1.67493.222375-1.96581.607808-3.51285 1.746357-4.67216 3.433413l-5.99447 12.193345c-.1906.504037-.24192 1.052568-.13216 1.605524-.00026 0 .0001 0 0 0h .0224c.006.311316.0682.578162.19834.83018.23632.474394.95943 1.022913 1.60882 1.245276.6494.222375 4.67748.429923 8.94763.444751 5.44167 0 7.0574 0 7.73555-.355786h.3085l1.67492-2.631402h-6.58951-8.44077c-.64756 0-1.02943-.148238-1.14598-.355798.19355-.563335.644-1.577351 1.16804-2.59877l1.27823-2.471289h5.70799 5.68594l.37469-.83018h.0438l1.41049-2.696618h-11.50412l.70519-1.408362c.66264-1.349045 1.46023-2.623978 1.78511-2.855235.3249-.237197 3.88878-.533697 7.91186-.667126 4.92709-.177895 6.51182-.25202 7.20659-.637453h.44077l1.60881-2.631402h-3.32784-2.6226-7.99997z" fill="#fff" stroke-width="1.20664907"/></svg>