<svg height="256" viewBox="0 0 256 256" width="256" xmlns="http://www.w3.org/2000/svg"><path d="m192 90.66667h-10.66667v-21.33334c.00001-29.44-23.89334-53.33333-53.33333-53.33333-29.440002 0-53.333335 23.89333-53.333335 53.33333v21.33334h-10.666667c-11.733333 0-21.333333 9.6-21.333333 21.33333v106.66667c0 11.73333 9.6 21.33333 21.333333 21.33333h128.000002c11.73333 0 21.33333-9.6 21.33333-21.33333v-106.66667c0-11.73333-9.6-21.33333-21.33333-21.33333zm-64 96c-11.73333 0-21.33333-9.6-21.33333-21.33334 0-11.73333 9.6-21.33333 21.33333-21.33333s21.33333 9.6 21.33333 21.33333c0 11.73334-9.6 21.33334-21.33333 21.33334zm33.06666-96h-66.133328v-21.33334c0-18.24 14.826668-33.06666 33.066668-33.06666 18.23999 0 33.06666 14.82666 33.06666 33.06666z" fill="#ffffff"/></svg>