<svg height="256" viewBox="0 0 256 256" width="256" xmlns="http://www.w3.org/2000/svg"><path d="m0 232h24v24h-24z" fill="none"/><path d="m77.09091 56.72727h101.81818v20.36364h20.36363v-40.72727c0-11.2-9.16363-20.26182-20.36363-20.26182l-101.81818-.10182c-11.2 0-20.363637 9.16364-20.363637 20.36364v40.72727h20.363637zm85.6291 118.00727 46.73453-46.73454-46.73453-46.73455-14.35638 14.45819 32.27637 32.27636-32.27637 32.27636zm-55.08365-14.45818-32.27636-32.27636 32.27636-32.27636-14.35636-14.45819-46.734545 46.73455 46.734545 46.73454zm71.27273 38.99637h-101.81818v-20.36364h-20.363637v40.72727c0 11.2 9.163637 20.36364 20.363637 20.36364h101.81818c11.2 0 20.36363-9.16364 20.36363-20.36364v-40.72727h-20.36363z" fill="#ffffff"/></svg>