<svg height="256" viewBox="0 0 256 256" width="256" xmlns="http://www.w3.org/2000/svg"><path d="m0 32h224v224h-224z" fill="none"/><path d="m45.866665 66.4h-20.533333v143.73333c0 11.29334 9.239999 20.53334 20.533333 20.53334h143.733335v-20.53334h-143.733335zm164.266665-41.06667h-123.199999c-11.293333 0-20.533333 9.24-20.533333 20.53334v123.2c0 11.29333 9.24 20.53333 20.533333 20.53333h123.199999c11.29334 0 20.53334-9.24 20.53334-20.53333v-123.2c0-11.29334-9.24-20.53334-20.53334-20.53334zm-10.26666 92.4h-102.666672v-20.53333h102.666672zm-41.06667 41.06667h-61.600002v-20.53333h61.600002zm41.06667-82.13333h-102.666672v-20.53334h102.666672z" fill="#ffffff"/></svg>