<svg height="256" viewBox="0 0 256 256" width="256" xmlns="http://www.w3.org/2000/svg"><path d="m219.63636 36.363635h-183.272724c-11.2 0-20.363636 9.16364-20.363636 20.36364v142.545445c0 11.20001 9.163636 20.36364 20.363636 20.36364h183.272724c11.2 0 20.36364-9.16363 20.36364-20.36364v-142.545445c0-11.2-9.16364-20.36364-20.36364-20.36364zm0 163.010905h-183.272724v-142.749085h183.272724zm-132.363633-30.64726h25.454543l15.27273 15.27273 15.27273-15.27273h25.45454v-25.45456l15.27273-15.27271-15.27273-15.27273v-25.454555h-25.45454l-15.27273-15.27272-15.27273 15.27272h-25.454543v25.454555l-15.272727 15.27273 15.272727 15.27271zm40.727273-71.272735c16.90182 0 30.54545 13.643645 30.54545 30.545465 0 16.90181-13.64363 30.54544-30.54545 30.54544z" fill="#ffffff"/></svg>