<svg height="256" width="256" xmlns="http://www.w3.org/2000/svg"><g stroke="#ffffff" transform="matrix(3.7333335 0 0 3.7333335 16.000008 -3688.8189)"><g fill="none" stroke="#ffffff"><path d="m714.05091 718.0835a94.943062 94.943062 0 0 1 -94.94306 94.94306 94.943062 94.943062 0 0 1 -94.94306-94.94306 94.943062 94.943062 0 0 1  94.94306-94.94307 94.943062 94.943062 0 0 1  94.94306 94.94307z" stroke-width="11.29400826" transform="matrix(.29824018 0 0 .29824018 -154.64284 808.20082)"/><path d="m714.05091 718.0835a94.943062 94.943062 0 0 1 -94.94306 94.94306 94.943062 94.943062 0 0 1 -94.94306-94.94306 94.943062 94.943062 0 0 1  94.94306-94.94307 94.943062 94.943062 0 0 1  94.94306 94.94307z" stroke-width="13.94745159" transform="matrix(.10676955 0 0 .10676955 -36.101864 945.69272)"/><path d="m714.05091 718.0835a94.943062 94.943062 0 0 1 -94.94306 94.94306 94.943062 94.943062 0 0 1 -94.94306-94.94306 94.943062 94.943062 0 0 1  94.94306-94.94307 94.943062 94.943062 0 0 1  94.94306 94.94307z" stroke-width="54.23509216" transform="matrix(.06146071 0 0 .06146071 -8.0507988 978.22826)"/></g><path d="m34.170524 1035.0542s-1.609398 1.9103-1.910297 2.2707c-1.60593 1.9348-1.89283 2.4526-1.938296 2.589.007-.1364-.0525-.6612-.738232-2.617-.181967-.5213-.769732-2.2427-.769732-2.2427h-10.94758l-.384866 1.6234h2.875961.675266c1.85083 0 2.977428.7417 2.666028 2.0643-.342866 1.4379-1.959296 2.0642-3.67716 2.0642h-.643765l.836198-3.5302h-2.875995l-1.224564 5.1536h4.083059c3.064895 0 5.982856-1.6199 6.493655-3.6876.09447-.3814.084-1.3296-.150433-1.8964-.0037-.021-.01067-.038-.03133-.084-.01067-.018-.01767-.1015.03133-.119.028-.01.07697.042.08397.056.021.063.042.1119.042.1119l2.596062 7.3264 6.609121-7.4593h2.798995.675266c1.84733 0 2.987928.7417 2.673061 2.0643-.342899 1.4379-1.966296 2.0642-3.684193 2.0642h-.647265l.839698-3.5302h-2.875961l-1.224565 5.1536h4.079526c3.068395 0 6.003856-1.6129 6.497188-3.6876.493299-2.0748-1.66193-3.6912-4.744324-3.6912h-6.087822" fill="#ffffff" stroke="none"/></g></svg>