<svg height="256" viewBox="0 0 256 256" width="256" xmlns="http://www.w3.org/2000/svg"><path d="m165.33334 128c0-11.73333-9.6-21.33333-21.33334-21.33333-11.73333 0-21.33334 9.6-21.33334 21.33333 0 11.73334 9.60001 21.33334 21.33334 21.33334 11.73334 0 21.33334-9.6 21.33334-21.33334zm-21.33334-96c-53.013333 0-96 42.98667-96 96.00001h-32l42.666667 42.66666 42.666663-42.66666h-31.999997c0-41.28 33.386667-74.66667 74.666667-74.66667s74.66667 33.38667 74.66667 74.66666c0 41.28-33.38667 74.66667-74.66667 74.66667-16.10666 0-31.04-5.22666-43.30667-13.86667l-15.146663 15.36001c16.213333 12.37333 36.479993 19.83999 58.453333 19.83999 53.01333 0 96-42.98667 96-95.99999 0-53.01334-42.98667-96.00001-96-96.00001z" fill="#ffffff"/></svg>