<svg height="256" viewBox="0 0 256 256" width="256" xmlns="http://www.w3.org/2000/svg"><path d="m60.8 16h134.4a22.4 22.4 0 0 1 22.4 22.4v179.2a22.4 22.4 0 0 1 -22.4 22.4h-134.4a22.4 22.4 0 0 1 -22.4-22.4v-179.2a22.4 22.4 0 0 1 22.4-22.4m67.2 22.4a67.2 67.2 0 0 0 -67.2 67.2c0 37.072 30.128 67.2 68.32 67.2l-9.856-24.976c-3.024-5.376-1.232-12.208 4.144-15.344l9.632-5.6c5.376-3.024 12.208-1.232 15.344 4.144l21.504 27.104c15.456-12.32 25.312-31.248 25.312-52.528a67.2 67.2 0 0 0 -67.2-67.2m0 56a11.2 11.2 0 0 1 11.2 11.2 11.2 11.2 0 0 1 -11.2 11.2 11.2 11.2 0 0 1 -11.2-11.2 11.2 11.2 0 0 1  11.2-11.2m-56 100.8a11.2 11.2 0 0 0 -11.2 11.2 11.2 11.2 0 0 0  11.2 11.2 11.2 11.2 0 0 0  11.2-11.2 11.2 11.2 0 0 0 -11.2-11.2m57.008-52.976 27.888 70.672 29.008-16.8-47.264-59.472z" fill="#ffffff"/></svg>