<svg height="256" viewBox="0 0 256 256" width="256" xmlns="http://www.w3.org/2000/svg"><path d="m-30.772639 17.7039h-18c-1.1 0-2 .9-2 2v12c0 1.1.9 2 2 2h5v2h8v-2h5c1.1 0 1.99-.9 1.99-2l .01-12c0-1.1-.9-2-2-2zm0 14h-18v-12h18zm-5.0851-8.922978a1.5 1.5 0 0 1 -1.5 1.5 1.5 1.5 0 0 1 -1.500001-1.5 1.5 1.5 0 0 1  1.500001-1.5 1.5 1.5 0 0 1  1.5 1.5zm-5.232289 0a1.5 1.5 0 0 1 -1.499999 1.5 1.5 1.5 0 0 1 -1.5-1.5 1.5 1.5 0 0 1  1.5-1.5 1.5 1.5 0 0 1  1.499999 1.5zm-2.996267 5.398748a1.5 1.5 0 0 1 -1.500001 1.500001 1.5 1.5 0 0 1 -1.499999-1.500001 1.5 1.5 0 0 1  1.499999-1.499998 1.5 1.5 0 0 1  1.500001 1.499998zm11.627312 0a1.5 1.5 0 0 1 -1.5 1.500001 1.5 1.5 0 0 1 -1.5-1.500001 1.5 1.5 0 0 1  1.5-1.499998 1.5 1.5 0 0 1  1.5 1.499998z" fill="#ffffff" transform="matrix(10.181818 0 0 10.181818 532.95777 -143.89425)"/></svg>