<svg height="256" viewBox="0 0 256 256" width="256" xmlns="http://www.w3.org/2000/svg"><path d="m-30.772639 17.7039h-18c-1.1 0-2 .9-2 2v12c0 1.1.9 2 2 2h5v2h8v-2h5c1.1 0 1.99-.9 1.99-2l .01-12c0-1.1-.9-2-2-2zm0 14h-18v-12h18zm-9.66-6.520222c-.07338 0-.135017.05237-.143822.122815l-.111503.777285c-.179041.07338-.343479.173174-.496105.287643l-.732036-.292492c-.06751-.02642-.142537.000067-.177758.06464l-.588216 1.014835c-.03816.06457-.02022.143428.03555.187452l.618919.4848c-.01174.09392-.01939.190789-.01939.287641 0 .09686.0077.193728.01939.287639l-.618919.484809c-.05577.04402-.07077.122876-.03555.187441l.588216 1.014841c.03522.06457.113184.08811.177758.06463l.732036-.292473c.152626.117402.317064.214245.496105.287631l.111503.77728c.0088.07044.07044.122815.143822.122815h1.173199c.07338 0 .135017-.05238.143822-.122815l.111502-.77728c.179042-.07339.343478-.173166.496106-.287631l.73042.292473c.06751.02642.144152-.00006.179374-.06463l.586598-1.014841c.03522-.06457.02183-.143425-.03393-.187441l-.620536-.484809c.01174-.09391.02101-.187839.02101-.287639 0-.09979-.0093-.193725-.02101-.287641l.620536-.4848c.05577-.04402.06916-.122886.03393-.187452l-.586598-1.014835c-.03522-.06457-.114802-.08812-.179374-.06464l-.73042.292492c-.152628-.117405-.317064-.214266-.496106-.287643l-.111502-.777285c-.0088-.07044-.07044-.122815-.143822-.122815zm.586599 1.906853c.566478 0 1.02776.46129 1.02776 1.027765 0 .566493-.461282 1.027772-1.02776 1.027772-.566477 0-1.027761-.461279-1.027761-1.027772 0-.566475.461284-1.027765 1.027761-1.027765zm6.124574-1.16057a1.2410702 1.2410702 0 0 1 -1.241071 1.241071 1.2410702 1.2410702 0 0 1 -1.24107-1.241071 1.2410702 1.2410702 0 0 1  1.24107-1.241069 1.2410702 1.2410702 0 0 1  1.241071 1.241069zm-9.620206 0a1.2410702 1.2410702 0 0 1 -1.24107 1.241071 1.2410702 1.2410702 0 0 1 -1.24107-1.241071 1.2410702 1.2410702 0 0 1  1.24107-1.241069 1.2410702 1.2410702 0 0 1  1.24107 1.241069zm2.479053-4.466817a1.2410702 1.2410702 0 0 1 -1.24107 1.24107 1.2410702 1.2410702 0 0 1 -1.241071-1.24107 1.2410702 1.2410702 0 0 1  1.241071-1.24107 1.2410702 1.2410702 0 0 1  1.24107 1.24107zm4.32909 0a1.2410702 1.2410702 0 0 1 -1.241069 1.24107 1.2410702 1.2410702 0 0 1 -1.24107-1.24107 1.2410702 1.2410702 0 0 1  1.24107-1.24107 1.2410702 1.2410702 0 0 1  1.241069 1.24107z" fill="#ffffff" transform="matrix(10.181818 0 0 10.181818 532.95777 -143.89425)"/></svg>