<svg height="256" width="256" xmlns="http://www.w3.org/2000/svg"><path d="m35 24h3v2h-3zm-5 0h3v2h-3zm-5 0h3v2h-3zm-5 0h3v2h-3zm-5 0h3v2h-3zm-5 0h3v2h-3zm-7.0000948-9.999864c-1.1039985 0-2.00014441.895795-2.00014441 1.999797v9.000255s.00014439 1.999798 2.00014441 1.999798c3 0 4.000248 5.999975 7.0002478 5.999975h27.999919c3 0 3.999714-5.999975 6.999714-5.999975 2 0 2.000147-1.999798 2.000147-1.999798v-9.000255c0-1.104002-.896149-1.999797-2.000147-1.999797zm0 6.999874h41.9998808v1.999797l-3.99976 3.00028h-33.9998265l-4.0002943-3.00028z" fill="#ffffff" transform="matrix(4.869547002723 0 0 4.431167763062 11.131617120451 23.867319737943)"/></svg>