<svg height="256" viewBox="0 0 256 256" width="256" xmlns="http://www.w3.org/2000/svg"><path d="m217.6 16h-179.2c-12.32 0-22.288 10.08-22.288 22.4l-.112 112c0 12.32 10.08 22.4 22.4 22.4h179.2c12.32 0 22.4-10.08 22.4-22.4v-112c0-12.32-10.08-22.4-22.4-22.4zm-100.8 33.6h22.4v22.4h-22.4zm0 33.6h22.4v22.4h-22.4zm-33.6-33.6h22.4v22.4h-22.4zm0 33.6h22.4v22.4h-22.4zm-11.2 22.4h-22.4v-22.4h22.4zm0-33.6h-22.4v-22.4h22.4zm100.8 78.4h-89.6v-22.4h89.6zm0-44.8h-22.4v-22.4h22.4zm0-33.6h-22.4v-22.4h22.4zm33.6 33.6h-22.4v-22.4h22.4zm0-33.6h-22.4v-22.4h22.4zm-78.4 168 44.8-44.8h-89.6z" fill="#ffffff"/></svg>