<svg height="256" viewBox="0 0 256 256" width="256" xmlns="http://www.w3.org/2000/svg"><path d="m127.888 16c-61.824 0-111.888 50.176-111.888 112s50.064 112 111.888 112c61.936 0 112.112-50.176 112.112-112s-50.176-112-112.112-112zm77.616 67.2h-33.04c-3.584-14-8.736-27.44-15.456-39.872 20.608 7.056 37.744 21.392 48.496 39.872zm-77.504-44.352c9.296 13.44 16.576 28.336 21.392 44.352h-42.784c4.816-16.016 12.096-30.912 21.392-44.352zm-86.688 111.552c-1.792-7.168-2.912-14.672-2.912-22.4s1.12-15.232 2.912-22.4h37.856c-.896 7.392-1.568 14.784-1.568 22.4s.672 15.008 1.568 22.4zm9.184 22.4h33.04c3.584 14 8.736 27.44 15.456 39.872-20.608-7.056-37.744-21.28-48.496-39.872zm33.04-89.6h-33.04c10.752-18.592 27.888-32.816 48.496-39.872-6.72 12.432-11.872 25.872-15.456 39.872zm44.464 133.952c-9.296-13.44-16.576-28.336-21.392-44.352h42.784c-4.816 16.016-12.096 30.912-21.392 44.352zm26.208-66.752h-52.416c-1.008-7.392-1.792-14.784-1.792-22.4s.784-15.12 1.792-22.4h52.416c1.008 7.28 1.792 14.784 1.792 22.4s-.784 15.008-1.792 22.4zm2.8 62.272c6.72-12.432 11.872-25.872 15.456-39.872h33.04c-10.752 18.48-27.888 32.816-48.496 39.872zm19.824-62.272c.896-7.392 1.568-14.784 1.568-22.4s-.672-15.008-1.568-22.4h37.856c1.792 7.168 2.912 14.672 2.912 22.4s-1.12 15.232-2.912 22.4z" fill="#ffffff"/></svg>