<svg height="256" viewBox="0 0 256 256" width="256" xmlns="http://www.w3.org/2000/svg"><path d="m40.888884 165.33334h-24.888884v49.77778a24.888888 24.888888 0 0 0 24.888884 24.88888h49.777779v-24.88888h-49.777779m0-174.22224h49.777779v-24.88888h-49.777779a24.888888 24.888888 0 0 0 -24.888884 24.88888v49.77778h24.888884m174.222236-74.66666h-49.77778v24.88888h49.77778v49.77778h24.88888v-49.77778a24.888888 24.888888 0 0 0 -24.88888-24.88888m0 199.11112h-49.77778v24.88888h49.77778a24.888888 24.888888 0 0 0 24.88888-24.88888v-49.77778h-24.88888m-87.11112-87.11112a49.777778 49.777778 0 0 0 -49.777779 49.77778 49.777778 49.777778 0 0 0  49.777779 49.77778 49.777778 49.777778 0 0 0  49.77778-49.77778 49.777778 49.777778 0 0 0 -49.77778-49.77778m0 74.66666a24.888888 24.888888 0 0 1 -24.88888-24.88888 24.888888 24.888888 0 0 1  24.88888-24.88889 24.888888 24.888888 0 0 1  24.88888 24.88889 24.888888 24.888888 0 0 1 -24.88888 24.88888z" fill="#ffffff"/></svg>