<svg height="256" viewBox="0 0 256 256" width="256" xmlns="http://www.w3.org/2000/svg"><path d="m77.090909 240h20.363636v-20.36364h-20.363636zm40.727271 0h20.36364v-20.36364h-20.36364zm20.36364-224h-20.36364v101.81819h20.36364zm36.24728 24.84364-14.76365 14.76363c17.61456 10.69091 29.42546 29.93455 29.42546 52.02909 0 33.70183-27.3891 61.09091-61.09091 61.09091-33.701819 0-61.090909-27.38908-61.090909-61.09091 0-22.09454 11.810909-41.33818 29.323637-52.13091l-14.661819-14.66181c-21.178181 14.66181-35.025454 39.09818-35.025454 66.79272 0 45.00364 36.450909 81.45455 81.454545 81.45455 45.00363 0 81.45454-36.45091 81.45454-81.45455 0-27.69454-13.84728-52.13091-35.02545-66.79272zm-15.88365 199.15636h20.36364v-20.36364h-20.36364z" fill="#ffffff"/></svg>