<svg height="256" viewBox="0 0 256 256" width="256" xmlns="http://www.w3.org/2000/svg"><path d="m144.00003 31.99999c-53.01335 0-96.000026 42.98667-96.000026 96.00001h-32.000003l41.493338 41.49334.746633 1.49333 43.093338-42.98667h-32.000001c0-41.28 33.386681-74.66668 74.666681-74.66668s74.66668 33.38668 74.66668 74.66668-33.38668 74.66668-74.66668 74.66668c-20.58666 0-39.25334-8.42667-52.693346-21.97334l-15.146669 15.14667c17.386669 17.38667 41.280005 28.16 67.840015 28.16 53.01334 0 96.00001-42.98668 96.00001-96.00001 0-53.01334-42.98667-96.00001-96.00001-96.00001zm-10.66667 53.33334v53.33334l45.65334 27.09333 7.68-12.90666-37.33334-22.18667v-45.33334z" fill="#ffffff"/></svg>