<svg height="256" viewBox="0 0 256 256" width="256" xmlns="http://www.w3.org/2000/svg"><path d="m116.74371 38.73769v-22.73769c-22.625117 2.25126-43.224112 11.25628-59.883409 24.87638l15.98392 16.09648c12.494473-9.6804 27.465329-16.20904 43.899489-18.23517zm82.39599 2.13869c-16.6593-13.6201-37.25829-22.62512-59.88341-24.87638v22.73769c16.43416 2.02613 31.40502 8.55477 43.89948 18.23517zm18.12261 75.86733h22.73769c-2.25126-22.62512-11.25629-43.22411-24.87638-59.88341l-16.09649 15.98392c9.68041 12.49447 16.20905 27.46533 18.23518 43.89949zm-160.289446-43.89949-16.096482-15.98392c-13.620101 16.6593-22.625126 37.25829-24.876382 59.88341h22.737688c2.026131-16.43416 8.554774-31.40502 18.235176-43.89949zm-18.235176 66.41206h-22.737688c2.251256 22.62512 11.256281 43.22412 24.876382 59.88342l16.096482-16.09649c-9.680402-12.3819-16.209045-27.35276-18.235176-43.78693zm123.031162-11.25628c0-18.68543-15.08342-33.76884-33.76885-33.76884s-33.768844 15.08341-33.768844 33.76884 15.083414 33.76884 33.768844 33.76884 33.76885-15.08341 33.76885-33.76884zm37.25828 55.15577 16.09649 16.09649c13.62009-16.6593 22.62512-37.37086 24.87638-59.88342h-22.73769c-2.02613 16.32161-8.55477 31.29247-18.23518 43.78693zm-59.77084 34.10654v22.73769c22.62512-2.25126 43.22411-11.25629 59.88341-24.87638l-16.09649-16.09649c-12.3819 9.68041-27.35276 16.20905-43.78692 18.23518zm-82.395989-2.13869c16.659297 13.62009 37.370855 22.62512 59.883409 24.87638v-22.73769c-16.43416-2.02613-31.405016-8.55477-43.899489-18.23518z" fill="#ffffff"/></svg>