<svg height="256" viewBox="0 0 256 256" width="256" xmlns="http://www.w3.org/2000/svg"><path d="m128 16c-55.004447 0-99.555559 22.27556-99.555559 49.77778s44.551112 49.77778 99.555559 49.77778c55.00444 0 99.55556-22.27556 99.55556-49.77778s-44.55112-49.77778-99.55556-49.77778m-99.555559 74.66667v37.33333c0 27.50222 44.551112 49.77778 99.555559 49.77778 55.00444 0 99.55556-22.27556 99.55556-49.77778v-37.33333c0 27.50221-44.55112 49.77777-99.55556 49.77777-55.004447 0-99.555559-22.27556-99.555559-49.77777m0 62.22221v37.33334c0 27.50222 44.551112 49.77778 99.555559 49.77778 55.00444 0 99.55556-22.27556 99.55556-49.77778v-37.33334c0 27.50224-44.55112 49.77778-99.55556 49.77778-55.004447 0-99.555559-22.27554-99.555559-49.77778z" fill="#ffffff"/></svg>