<svg height="256" viewBox="0 0 256 256" width="256" xmlns="http://www.w3.org/2000/svg"><path d="m140.44445 16v115.23556c-6.22222-2.11556-12.44444-3.23556-18.66667-3.23556-24.391107 0-44.799992 15.68001-52.51555 37.33334h-40.817779v37.33332h40.817779c7.715558 21.65334 28.124443 37.33334 52.51555 37.33334 24.39111 0 44.8-15.68 52.51555-37.33334h53.26222v-37.33332h-49.77777v-74.66667-37.33334-37.33333h-37.33332m-18.66668 143.11112a24.888888 24.888888 0 0 1 24.88889 24.88889 24.888888 24.888888 0 0 1 -24.88889 24.88887 24.888888 24.888888 0 0 1 -24.888886-24.88887 24.888888 24.888888 0 0 1  24.888886-24.88889z" fill="#ffffff"/></svg>