<svg height="256" viewBox="0 0 256 256" width="256" xmlns="http://www.w3.org/2000/svg"><path d="m209.35019 24.614205-16.76832 25.74 13.18442 27.74699-25.74001-16.76831-27.747 13.18441 16.76832-25.74-13.18442-27.74699 25.74001 16.76831zm-155.512084 33.56888-27.746995 13.18441 16.768316-25.74001-13.184417-27.74699 25.740006 16.76831 27.747005-13.18441-16.768316 25.74001 13.184417 27.74698zm93.240584 111.033375c.30556-2.44446.53475-4.88892.53475-7.48615s-.22929-5.04169-.53475-7.48615l16.11813-12.6042c1.45139-1.14584 1.83333-3.20835.91667-4.88892l-15.27784-26.43065c-.91667-1.68057-2.97918-2.29169-4.65974-1.68057l-19.0209 7.63892c-3.97226-3.05557-8.25005-5.5764-12.9098-7.48615l-2.90277-20.243125c-.22918-1.83334-1.83336-3.20834-3.74308-3.20834h-30.55568c-1.909723 0-3.513909 1.375-3.743061 3.20834l-2.902796 20.243135c-4.65974 1.90975-8.93753 4.50698-12.909773 7.48615l-19.020911-7.63893c-1.756955-.68748-3.743071 0-4.65973 1.68057l-15.27784 26.43065c-.992931 1.68058-.534749 3.74308.916669 4.88893l16.118125 12.60419c-.305556 2.44446-.534749 4.96531-.534749 7.48616 0 2.52083.229193 5.04168.534749 7.48615l-16.118115 12.60418c-1.451388 1.14586-1.833339 3.20836-.916669 4.88893l15.27784 26.43065c.916669 1.68058 2.97918 2.29168 4.65973 1.68058l19.020911-7.63893c3.972233 3.05556 8.250033 5.57641 12.909763 7.48614l2.902806 20.24313c.229193 1.83334 1.833328 3.20835 3.743061 3.20835h30.55568c1.90972 0 3.5139-1.37501 3.74308-3.20835l2.90277-20.24313c4.65975-1.90973 8.93754-4.50697 12.90979-7.48614l19.02091 7.63893c1.75694.68747 3.74306 0 4.65974-1.68058l15.27784-26.43065c.91667-1.68056.53464-3.74306-.91667-4.88892l-16.11815-12.60419zm-56.75717 19.25007c-14.743111 0-26.736215-11.9931-26.736215-26.73622s11.993104-26.73621 26.736215-26.73621c14.74311 0 26.73622 11.99309 26.73622 26.73621s-11.99311 26.73622-26.73622 26.73622zm121.9315-52.82783 27.74698-13.1844-16.7683 25.74001 13.1844 27.74698-25.74001-16.76831-27.74698 13.18441 16.7683-25.74001-13.18441-27.74699z" fill="#ffffff"/></svg>