<svg height="256" viewBox="0 0 256 256" width="256" xmlns="http://www.w3.org/2000/svg"><path d="m144 32c-53.013333 0-96 42.98667-96 96.00001h-32l41.493333 41.49333.746664 1.49332 43.093333-42.98665h-32c0-41.28 33.38667-74.66667 74.66667-74.66667s74.66667 33.38667 74.66667 74.66666c0 41.28-33.38667 74.66667-74.66667 74.66667-20.58666 0-39.25334-8.42667-52.693336-21.97333l-15.146664 15.14666c17.386667 17.38667 41.28 28.16 67.84 28.16 53.01333 0 96-42.98667 96-95.99999 0-53.01334-42.98667-96.00001-96-96.00001zm-10.66666 53.33334v53.33333l45.65333 27.09333 7.68-12.90667-37.33334-22.18667v-45.33332z" fill="#ffffff"/></svg>