<svg height="256" viewBox="0 0 256 256" width="256" xmlns="http://www.w3.org/2000/svg"><path d="m105.6 16c-12.432 0-22.4 9.968-22.4 22.4v33.6c0 12.432 9.968 22.4 22.4 22.4h11.2v22.4h-100.8v22.4h44.8v22.4h-11.2c-12.432 0-22.4 9.968-22.4 22.4v33.6c0 12.432 9.968 22.4 22.4 22.4h44.8c12.432 0 22.4-9.968 22.4-22.4v-33.6c0-12.432-9.968-22.4-22.4-22.4h-11.2v-22.4h89.6v22.4h-11.2c-12.432 0-22.4 9.968-22.4 22.4v33.6c0 12.432 9.968 22.4 22.4 22.4h44.8c12.432 0 22.4-9.968 22.4-22.4v-33.6c0-12.432-9.968-22.4-22.4-22.4h-11.2v-22.4h44.8v-22.4h-100.8v-22.4h11.2c12.432 0 22.4-9.968 22.4-22.4v-33.6c0-12.432-9.968-22.4-22.4-22.4zm0 22.4h44.8v33.6h-44.8zm-56 145.6h44.8v33.6h-44.8zm112 0h44.8v33.6h-44.8z" fill="#ffffff"/></svg>