<svg height="256" viewBox="0 0 256 256" width="256" xmlns="http://www.w3.org/2000/svg"><path d="m128 103.11111c-13.68888 0-24.88888 11.20001-24.88888 24.88889s11.2 24.88888 24.88888 24.88888 24.88888-11.2 24.88888-24.88888-11.2-24.88889-24.88888-24.88889zm87.11112-87.11111h-174.222236c-13.813326 0-24.888884 11.2-24.888884 24.88889v174.22223c0 13.68888 11.075558 24.88888 24.888884 24.88888h174.222236c13.81332 0 24.88888-11.2 24.88888-24.88888v-174.22223c0-13.68889-11.07556-24.88889-24.88888-24.88889zm-21.77778 112c0 2.86222-.24895 5.72444-.62221 8.46222l18.41776 14.43556c1.61778 1.36888 2.11556 3.73332.99558 5.6l-17.42222 30.11556c-1.12 1.86666-3.36 2.61332-5.3511 1.86666l-21.65334-8.71112c-4.48 3.48446-9.45778 6.34668-14.68444 8.58668l-3.23556 23.02222c-.37337 2.11556-2.24 3.73334-4.35556 3.73334h-34.84444c-2.11556 0-3.98222-1.61778-4.35556-3.6089l-3.23556-23.02222c-5.351102-2.24-10.204438-5.10222-14.684438-8.58666l-21.653337 8.7111c-1.991106.74663-4.231106 0-5.351106-1.86666l-17.422251-30.11556c-1.12-1.86666-.622211-4.23112.995578-5.6l18.417748-14.43555c-.373367-2.86223-.622211-5.72445-.622211-8.58667s.248946-5.72444.622211-8.46222l-18.417768-14.43556c-1.617779-1.36888-2.115558-3.73333-.995579-5.6l17.422222-30.11555c1.12-1.86667 3.36-2.61333 5.351105-1.86667l21.653337 8.71111c4.48-3.48444 9.457779-6.34666 14.684439-8.58666l3.23556-23.02223c.37337-2.11555 2.24-3.73333 4.35556-3.73333h34.84444c2.11556 0 3.98222 1.61778 4.35556 3.60889l3.23556 23.02222c5.3511 2.24 10.20444 5.10222 14.68444 8.58667l21.65334-8.71111c1.9911-.74667 4.2311 0 5.3511 1.86666l17.42222 30.11556c1.12 1.86667.62221 4.23111-.99558 5.6l-18.41777 14.43556c.37337 2.86222.62222 5.72444.62222 8.58666z" fill="#ffffff"/></svg>