<svg height="256" viewBox="0 0 256 256" width="256" xmlns="http://www.w3.org/2000/svg"><path d="m168.72727 117.81818c16.90182 0 30.44364-13.64363 30.44364-30.545455 0-16.90182-13.54182-30.54545-30.44364-30.54545s-30.54545 13.64363-30.54545 30.54545c0 16.901825 13.64363 30.545455 30.54545 30.545455zm-81.454543 0c16.901813 0 30.443633-13.64363 30.443633-30.545455 0-16.90182-13.54181-30.54545-30.443633-30.54545-16.901818 0-30.545454 13.64363-30.545454 30.54545 0 16.901825 13.643636 30.545455 30.545454 30.545455zm0 20.36364c-23.723636 0-71.272727 11.91273-71.272727 35.63636v25.45455h142.54545v-25.45455c0-23.72363-47.54909-35.63636-71.272723-35.63636zm81.454543 0c-2.95272 0-6.31272.20364-9.87636.50909 11.81091 8.55272 20.05818 20.05817 20.05818 35.12727v25.45455h61.09091v-25.45455c0-23.72363-47.54909-35.63636-71.27273-35.63636z" fill="#ffffff"/></svg>