<svg height="256" viewBox="0 0 256 256" width="256" xmlns="http://www.w3.org/2000/svg"><path d="m213.33333 122.66666h-15.99999v-42.66666c0-11.84-9.6-21.33333-21.33334-21.33333h-42.66666v-16a26.666666 26.666666 0 0 0 -26.66667-26.66667 26.666666 26.666666 0 0 0 -26.666673 26.66667v16h-42.666665a21.333333 21.333333 0 0 0 -21.333332 21.33333v40.53334h16.000004c15.999995 0 28.799996 12.8 28.799996 28.79999 0 16.00001-12.800001 28.80001-28.799996 28.80001h-16.000004v40.53333a21.333333 21.333333 0 0 0 21.333332 21.33333h40.53333v-16c0-16 12.800001-28.8 28.800008-28.8 15.99999 0 28.79999 12.8 28.79999 28.8v16h40.53334a21.333333 21.333333 0 0 0 21.33334-21.33333v-42.66667h15.99999a26.666666 26.666666 0 0 0 26.66667-26.66667 26.666666 26.666666 0 0 0 -26.66667-26.66667z" fill="#ffffff"/></svg>