<svg height="256" viewBox="0 0 256 256" width="256" xmlns="http://www.w3.org/2000/svg"><path d="m128.0487 16c-29.606961 0-56.389569 11.97913-75.770438 31.36l13.732174 13.73217c15.874782-15.87478 37.690434-25.61391 62.038264-25.61391 24.34782 0 46.16348 9.73913 61.94086 25.71131l13.73218-13.73218c-19.28348-19.47826-46.06608-31.45739-75.67304-31.45739m-48.2087 58.92174 13.732175 13.73217c8.862605-8.76521 21.036525-14.21913 34.476525-14.21913s25.61391 5.45392 34.47652 14.21913l13.73217-13.73217c-12.36869-12.3687-29.41217-19.96522-48.20869-19.96522s-35.840004 7.59652-48.2087 19.96522m48.2087 87.16522a19.478261 19.478261 0 0 1 -19.47827-19.47826 19.478261 19.478261 0 0 1  19.47827-19.47827 19.478261 19.478261 0 0 1  19.47827 19.47827 19.478261 19.478261 0 0 1 -19.47827 19.47826m29.21739-58.43479h-58.434785a9.7391304 9.7391304 0 0 0 -9.73913 9.73913v116.86957a9.7391304 9.7391304 0 0 0 9.73913 9.73913h58.434775a9.7391304 9.7391304 0 0 0 9.73913-9.73913v-116.86957a9.7391304 9.7391304 0 0 0 -9.73912-9.73913z" fill="#ffffff"/></svg>