<svg height="256" viewBox="0 0 256 256" width="256" xmlns="http://www.w3.org/2000/svg"><path d="m128 16a112 112 0 0 0 -112 112 112 112 0 0 0  112 112 112 112 0 0 0  112-112 112 112 0 0 0 -112-112m-82.133334 74.66667h29.866671a14.933334 14.933334 0 0 1 14.933326 14.93333v14.93334c0 7.46666-5.674663 13.44-12.842663 14.48532l17.472 30.31468h-17.322663l-17.173337-29.86668v29.86668h-14.933334m74.666674-74.66667h29.86666v14.93333h-29.86666v14.93334h29.86666v14.93332h-29.86666v14.93334h29.86666v14.93334h-29.86666a14.933334 14.933334 0 0 1 -14.93334-14.93334v-44.8a14.933334 14.933334 0 0 1 14.93334-14.93333m59.73332 0h29.86668v14.93333h-29.86668v44.8h29.86668v14.93334h-29.86668a14.933334 14.933334 0 0 1 -14.93332-14.93334v-44.8a14.933334 14.933334 0 0 1 14.93332-14.93333m-119.46666 14.93333v14.93334h14.933337v-14.93334" fill="#ffffff"/></svg>