<svg height="256" viewBox="0 0 256 256" width="256" xmlns="http://www.w3.org/2000/svg"><path d="m69.722124 105.10301-16.68462-16.80296c-10.649764 13.72636-17.276285 29.58267-19.287907 46.03064h23.902796c1.656633-10.29477 5.79821-20.35288 12.069731-29.22768zm-12.069731 52.89382h-23.902796c2.011622 16.44797 8.51981 32.30428 19.169574 46.03064l16.68463-16.80296c-6.153198-8.8748-10.294775-18.81457-11.951408-29.22768zm11.951408 62.95193c13.726354 10.64976 29.700995 17.03962 46.148969 19.05124v-24.02113c-10.29478-1.77496-20.234551-5.79821-29.10935-12.18806zm69.815109-168.62124v-36.32752l-53.840467 53.84046 53.840467 52.65716v-46.2673c33.60592 5.67987 59.16535 34.78923 59.16535 69.93344 0 35.14422-25.55943 64.25357-59.16535 69.93344v23.9028c46.74061-5.7982 82.83149-45.55731 82.83149-93.83624 0-48.27892-36.09087-88.03803-82.83149-93.83624z" fill="#ffffff"/></svg>