<svg height="256" viewBox="0 0 256 256" width="256" xmlns="http://www.w3.org/2000/svg"><path d="m170.42156 69.84046-53.84047-53.84046v36.32752c-46.622288 5.79821-82.831481 45.55732-82.831481 93.83624 0 48.27893 36.09086 88.03804 82.831481 93.83624v-23.9028c-33.605913-5.67987-59.165341-34.78922-59.165341-69.93344 0-35.14421 25.559428-64.25357 59.165341-69.93344v46.2673zm51.82883 64.49024c-2.01162-16.44798-8.51981-32.30429-19.16957-46.03065l-16.80296 16.80296c6.38986 8.8748 10.4131 18.93291 12.06973 29.22769zm-82.00316 81.64817v23.9028c16.44796-2.01163 32.4226-8.40148 46.14897-19.05124l-17.03962-17.03962c-8.87481 6.38985-18.81459 10.53143-29.10935 12.18806zm46.03063-28.63603 16.80296 16.68463c10.64976-13.72636 17.15795-29.58267 19.16957-46.03064h-23.9028c-1.65663 10.29477-5.67987 20.35288-12.06973 29.34601z" fill="#ffffff"/></svg>