<svg height="256" viewBox="0 0 256 256" width="256" xmlns="http://www.w3.org/2000/svg"><path d="m217.6 213.008v-129.808l-67.2-67.2h-89.6c-12.32 0-22.288 10.08-22.288 22.4l-.112 179.2c0 12.32 9.968 22.4 22.288 22.4h134.512c5.04 0 9.52-1.68 13.328-4.48l-49.616-49.616c-8.96 5.824-19.488 9.296-30.912 9.296-30.912 0-56-25.088-56-56s25.088-56 56-56 56 25.088 56 56c0 11.424-3.472 21.952-9.296 30.8zm-123.2-73.808c0 18.592 15.008 33.6 33.6 33.6s33.6-15.008 33.6-33.6-15.008-33.6-33.6-33.6-33.6 15.008-33.6 33.6z" fill="#ffffff"/></svg>