<svg height="256" viewBox="0 0 256 256" width="256" xmlns="http://www.w3.org/2000/svg"><path d="m219.63636 56.727276v142.545444h20.36364v-142.545444zm-40.72727 142.545444h20.36364v-142.545444h-20.36364zm-30.54545-142.545444h-122.181821c-5.600001 0-10.181819 4.581815-10.181819 10.181815v122.181809c0 5.6 4.581818 10.18182 10.181819 10.18182h122.181821c5.6 0 10.18181-4.58182 10.18181-10.18182v-122.181809c0-5.6-4.58181-10.181815-10.18181-10.181815zm-61.090913 28c12.625455 0 22.909093 10.283628 22.909093 22.909074 0 12.62546-10.283638 22.90909-22.909093 22.90909-12.625454 0-22.909091-10.28363-22.909091-22.90909 0-12.625446 10.283637-22.909074 22.909091-22.909074zm45.818183 94.181804h-91.636365v-7.63636c0-15.27273 30.545455-22.90909 45.818182-22.90909 15.272733 0 45.818183 7.63637 45.818183 22.90909z" fill="#ffffff"/></svg>