<svg height="256" viewBox="0 0 256 256" width="256" xmlns="http://www.w3.org/2000/svg"><path d="m149.33334 58.66667c0-11.73334-9.6-21.33334-21.33334-21.33334h-10.66666v-10.66666c0-5.86667-4.8-10.66667-10.66667-10.66667h-42.666676c-5.866662 0-10.666666 4.8-10.666666 10.66667v10.66666h-10.666666c-11.733334 0-21.333332 9.6-21.333332 21.33334v160c0 11.73333 9.599998 21.33333 21.333332 21.33333h85.333338c11.73333 0 21.33334-9.6 21.33334-21.33333h85.33333v-160zm-21.33334 138.66666h-21.33333v-21.33333h21.33333zm0-95.99999h-21.33333v-21.33334h21.33333zm42.66667 95.99999h-21.33333v-21.33333h21.33333zm0-95.99999h-21.33333v-21.33334h21.33333zm42.66667 95.99999h-21.33334v-21.33333h21.33334zm0-95.99999h-21.33334v-21.33334h21.33334z" fill="#ffffff"/></svg>