<svg height="256" viewBox="0 0 256 256" width="256" xmlns="http://www.w3.org/2000/svg"><path d="m215.44214 103.44215 24.55786 24.55785-24.55786 24.55784-18.41838-18.41838-18.41838 18.41838-18.41839-18.41838-18.41839 18.41838h-27.75036c-2.333 4.42042-5.34134 8.53386-9.08641 12.27893a52.095062 52.095062 0 0 1 -73.673541 0 52.095062 52.095062 0 0 1  0-73.67354 52.095062 52.095062 0 0 1  73.673541 0c3.74507 3.74507 6.75341 7.85851 9.08641 12.27892zm-171.904928 12.27892a17.365021 17.365021 0 0 0 0 24.55786 17.365021 17.365021 0 0 0  24.557849 0 17.365021 17.365021 0 0 0  0-24.55786 17.365021 17.365021 0 0 0 -24.557849 0z" fill="#ffffff"/></svg>