<svg height="256" width="256" xmlns="http://www.w3.org/2000/svg"><path d="m53.333988 812.3622c-5.848894 0-10.951105 2.61265-14.435547 6.84422l-17.173836 20.90734c-3.608884 4.23157-5.724605 9.58109-5.724605 15.8032v155.55684a24.888889 24.888889 0 0 0 24.888671 24.8884h174.222659a24.888889 24.888889 0 0 0 24.88867-24.8884v-155.55684c0-6.22211-2.11573-11.57163-5.72461-15.8032l-17.29687-20.90734c-3.36-4.23157-8.46361-6.84422-14.3125-6.84422zm-.871054 12.44524h149.332026l11.69922 12.4432h-171.111328zm50.648436 74.66632h49.77734v24.88844h43.55664l-68.44531 68.4452-68.445307-68.4452h43.556637zm104.44336 98.13644h3.98047v11.2092c0 2.0414-.53027 3.6318-1.59179 4.7752-.55125.6109-1.26474 1.0427-2.14259 1.287-.87787.224-2.10382.336-3.67578.336h-31.84766c-2.00067 0-3.6327-.5498-4.89842-1.6525-1.34741-1.1841-2.01066-2.7654-1.99024-4.7457 0-1.8379.61101-3.3692 1.83593-4.5941 1.24532-1.2452 2.79653-1.8694 4.6543-1.8694l25.44921-.1018c1.20449.1018 1.80665.7128 1.80665 1.8989 0 1.2656-.63463 1.8979-1.90039 1.8979h-.15232c-.0407 0-.0825 0-.123 0h-24.49804c-2.26607 0-3.36788.896-3.30664 2.6931.0407 1.8165 1.25597 2.7267 3.64453 2.7267h31.84765c1.55156 0 2.48089-.5396 2.78711-1.623.0815-.448.12106-1.0406.12106-1.7757v-10.4435z" fill="#ffffff" transform="translate(0 -796.3622)"/></svg>