<svg height="256" viewBox="0 0 256 256" width="256" xmlns="http://www.w3.org/2000/svg"><path d="m48.816 21.208c-20.272 20.272-32.816 48.272-32.816 79.184s12.544 58.912 32.816 79.184l15.792-15.792c-16.24-16.128-26.208-38.528-26.208-63.392 0-24.752 9.968-47.264 26.208-63.392zm158.368 0-15.792 15.792c16.24 16.128 26.208 38.64 26.208 63.392 0 24.864-9.968 47.264-26.208 63.392l15.792 15.792c20.272-20.272 32.816-48.272 32.816-79.184s-12.544-58.912-32.816-79.184m-126.672 31.696c-12.208 12.208-19.712 29.008-19.712 47.488s7.504 35.28 19.712 47.488l15.792-15.792c-8.064-8.064-13.104-19.264-13.104-31.696s5.04-23.632 13.104-31.696zm94.976 0-15.792 15.792c8.064 8.064 13.104 19.264 13.104 31.696s-5.04 23.632-13.104 31.696l15.792 15.792c12.208-12.208 19.712-29.008 19.712-47.488s-7.504-35.28-19.712-47.488m-47.488 25.088a22.4 22.4 0 0 0 -22.4 22.4 22.4 22.4 0 0 0  22.4 22.4 22.4 22.4 0 0 0  22.4-22.4 22.4 22.4 0 0 0 -22.4-22.4m-11.2 67.2v44.8h-11.2a11.2 11.2 0 0 0 -11.2 11.2h-78.4v22.4h78.4a11.2 11.2 0 0 0 11.2 11.2h44.8a11.2 11.2 0 0 0 11.2-11.2h78.4v-22.4h-78.4a11.2 11.2 0 0 0 -11.2-11.2h-11.2v-44.8z" fill="#ffffff"/></svg>