<svg height="256" viewBox="0 0 256 256" width="256" xmlns="http://www.w3.org/2000/svg"><path d="m141.17648 16h-26.35294v131.7647h26.35294zm46.90823 32.15059-19.10588 19.10588c22.79529 13.83529 38.08 38.73882 38.08 67.33177 0 43.61411-35.44471 79.05882-79.05883 79.05882-43.614112 0-79.058823-35.44471-79.058823-79.05882 0-28.59295 15.284711-53.49648 37.948237-67.46353l-18.974113-18.97412c-27.407061 18.97412-45.327062 50.59764-45.327062 86.43765 0 58.24 47.171763 105.41176 105.411761 105.41176 58.24 0 105.41176-47.17176 105.41176-105.41176 0-35.84001-17.92-67.46353-45.32705-86.43765z" fill="#ffffff"/></svg>