<svg height="256" viewBox="0 0 256 256" width="256" xmlns="http://www.w3.org/2000/svg"><path d="m48.816 49.1743c-20.272 20.18027-32.816 48.05357-32.816 78.8257 0 30.77212 12.544 58.64543 32.816 78.8257l15.792-15.72054c-16.24-16.05503-26.208-38.35367-26.208-63.10516 0-24.64 9.968-47.05014 26.208-63.10516zm158.368 0-15.792 15.72054c16.24 16.05502 26.208 38.46516 26.208 63.10516 0 24.75149-9.968 47.05013-26.208 63.10516l15.792 15.72054c20.272-20.18027 32.816-48.05358 32.816-78.8257 0-30.77213-12.544-58.64543-32.816-78.8257m-126.672 31.55258c-12.208 12.15276-19.712 28.87674-19.712 47.27312s7.504 35.12036 19.712 47.27312l15.792-15.72054c-8.064-8.02751-13.104-19.17684-13.104-31.55258 0-12.37575 5.04-23.52507 13.104-31.55258zm94.976 0-15.792 15.72054c8.064 8.02751 13.104 19.17683 13.104 31.55258 0 12.37574-5.04 23.52507-13.104 31.55258l15.792 15.72054c12.208-12.15276 19.712-28.87674 19.712-47.27312s-7.504-35.12036-19.712-47.27312m-47.488 24.97448a22.4 22.298643 0 0 0 -22.4 22.29864 22.4 22.298643 0 0 0  22.4 22.29864 22.4 22.298643 0 0 0  22.4-22.29864 22.4 22.298643 0 0 0 -22.4-22.29864z" fill="#ffffff"/></svg>