<svg height="256" viewBox="0 0 256 256" width="256" xmlns="http://www.w3.org/2000/svg"><path d="m211.24074 138.976c.448-3.584.784-7.168.784-10.976s-.336-7.392-.784-10.976l23.632-18.48c2.128-1.68 2.688-4.704 1.344-7.168l-22.4-38.752c-1.344-2.464-4.368-3.36-6.832-2.464l-27.888 11.2c-5.824-4.48-12.096-8.176-18.928-10.976l-4.256-29.68c-.336-2.688-2.688-4.704-5.488-4.704h-44.8c-2.8 0-5.152 2.016-5.488 4.704l-4.256002 29.68c-6.832 2.8-13.104 6.608-18.928 10.976l-27.888-11.2c-2.576-1.008-5.488 0-6.832 2.464l-22.400001 38.752c-1.456 2.464-.784 5.488 1.344 7.168l23.632001 18.48c-.448 3.584-.784 7.28-.784 10.976s.336 7.392.784 10.976l-23.632001 18.48c-2.128 1.68-2.688 4.704-1.344 7.168l22.400001 38.752c1.344 2.464 4.368 3.36 6.832 2.464l27.888-11.2c5.824 4.48 12.096 8.176 18.928 10.976l4.256002 29.68c.336 2.688 2.688 4.704 5.488 4.704h44.8c2.8 0 5.152-2.016 5.488-4.704l4.256-29.68c6.832-2.8 13.104-6.608 18.928-10.976l27.888 11.2c2.576 1.008 5.488 0 6.832-2.464l22.4-38.752c1.344-2.464.784-5.488-1.344-7.168zm-83.216 28.224c-21.616 0-39.200002-17.584-39.200002-39.2s17.584002-39.2 39.200002-39.2 39.2 17.584 39.2 39.2-17.584 39.2-39.2 39.2z" fill="#ffffff"/></svg>