<svg height="256" viewBox="0 0 256 256" width="256" xmlns="http://www.w3.org/2000/svg"><path d="m115.55556 190.22222c0 6.84444 5.6 12.44444 12.44444 12.44444s12.44444-5.6 12.44444-12.44444-5.6-12.44444-12.44444-12.44444-12.44444 5.6-12.44444 12.44444zm0-174.22222v49.77778h24.88888v-23.89333c42.18667 6.09778 74.66667 42.18666 74.66667 86.11555 0 48.16-38.95111 87.11112-87.11111 87.11112-48.160001 0-87.111116-38.95112-87.111116-87.11112 0-20.90666 7.342231-40.07111 19.662231-55.00444l67.448885 67.44888 17.54666-17.54666-84.622219-84.62222v.24888c-27.253326 20.40889-44.924441 52.76445-44.924441 89.47556 0 61.84888 50.026662 112 112 112 61.84888 0 112-50.15112 112-112 0-61.84889-50.15112-112-112-112zm87.1111 112c0-6.84444-5.6-12.44444-12.44444-12.44444s-12.44444 5.6-12.44444 12.44444 5.6 12.44444 12.44444 12.44444 12.44444-5.6 12.44444-12.44444zm-149.333324 0c0 6.84444 5.6 12.44444 12.444442 12.44444s12.444442-5.6 12.444442-12.44444-5.6-12.44444-12.444442-12.44444-12.444442 5.6-12.444442 12.44444z" fill="#ffffff"/></svg>