<svg height="256" viewBox="0 0 256 256" width="256" xmlns="http://www.w3.org/2000/svg"><path d="m128 59.730918c-39.403636 0-71.272727 31.86908-71.272727 71.272712h20.363636c0-28.10182 22.807273-50.909081 50.909091-50.909081 28.10182 0 50.90909 22.807261 50.90909 50.909081h20.36364c0-39.403632-31.86909-71.272712-71.27273-71.272712zm10.18182 94.589082c8.96-3.97091 15.27273-12.8291 15.27273-23.31637 0-14.05091-11.40364-25.45454-25.45455-25.45454s-25.45454 11.40363-25.45454 25.45454c0 10.38546 6.31272 19.34546 15.27272 23.31637v33.6l-34.719998 34.72 14.356363 14.35636 30.545455-30.54545 30.54545 30.54545 14.35637-14.35636-34.72-34.72zm-10.18182-135.316362c-61.803636 0-112 50.19636-112 111.999992h20.363636c0-50.603631 41.032728-91.636351 91.636364-91.636351 50.60364 0 91.63636 41.03272 91.63636 91.636351h20.36364c0-61.803632-50.19636-111.999992-112-111.999992z" fill="#ffffff"/></svg>