<svg height="256" viewBox="0 0 256 256" width="256" xmlns="http://www.w3.org/2000/svg"><path d="m16 189.09092v30.54544h30.545455c0-16.90181-13.643647-30.54544-30.545455-30.54544zm0-40.72729v20.36365c28.101818 0 50.909091 22.80726 50.909091 50.90908h20.363636c0-39.40363-31.869091-71.27273-71.272727-71.27273zm183.27274-71.272725h-142.545477v16.59637c40.32001 13.032735 72.189097 44.901805 85.221827 85.221815h57.32365zm-183.27274 30.545465v20.36364c50.603636 0 91.63636 41.03272 91.63636 91.63635h20.36364c0-61.90546-50.196374-111.99999-112-111.99999zm203.63636-71.272735h-183.272724c-11.2 0-20.363636 9.16363-20.363636 20.36363v30.54546h20.363636v-30.54546h183.272724v142.545455h-71.27272v20.36364h71.27272c11.2 0 20.36364-9.16363 20.36364-20.36364v-142.545455c0-11.2-9.16364-20.36363-20.36364-20.36363z" fill="#ffffff"/></svg>