<svg height="256" viewBox="0 0 256 256" width="256" xmlns="http://www.w3.org/2000/svg"><path d="m194.08 188.368c-2.912-8.96-11.312-15.568-21.28-15.568h-11.2v-33.6a11.2 11.2 0 0 0 -11.2-11.2h-67.2v-22.4h22.4a11.2 11.2 0 0 0 11.2-11.2v-22.4h22.4a22.4 22.4 0 0 0 22.4-22.4v-4.592c32.816 13.216 56 45.36 56 82.992 0 23.296-8.96 44.464-23.52 60.368m-77.28 28.448c-44.24-5.488-78.4-43.12-78.4-88.816 0-6.944.896-13.664 2.352-20.048l53.648 53.648v11.2a22.4 22.4 0 0 0 22.4 22.4m11.2-179.2a112 112 0 0 0 -112 112 112 112 0 0 0  112 112 112 112 0 0 0  112-112 112 112 0 0 0 -112-112z" fill="#ffffff"/></svg>