<svg height="256" viewBox="0 0 256 256" width="256" xmlns="http://www.w3.org/2000/svg"><path d="m40.888888 16c-13.813332 0-24.888888 11.07556-24.888888 24.88889v174.22223a24.888888 24.888888 0 0 0 24.888888 24.88888h174.222232a24.888888 24.888888 0 0 0 24.88888-24.88888v-174.22223c0-13.81333-11.2-24.88889-24.88888-24.88889zm134.151112 24.88889h40.07112v151.57333c-3.23556-9.95556-16.30224-17.29778-27.37778-17.29778h-12.44446v-37.33332a12.444444 12.444444 0 0 0 -12.44444-12.44446h-74.666661v-24.88888h24.888881a12.444444 12.444444 0 0 0 12.44446-12.44445v-24.88889h24.88888c12.81778 0 23.27112-9.83111 24.64-22.27555m-134.151112 65.83111 59.733332 56v12.44444c0 13.81334 11.2 24.8889 24.8889 24.8889v15.05778h-84.622232z" fill="#ffffff"/></svg>